#!OML:ASF F:\VICON\USERDATA\INSTALL\rory3\rory3.ASF
:FULLY-SPECIFIED
:DEGREES
320
root -0.980907 18.5899 -1.17854 6.25393 -5.16039 1.9397
lowerback 9.45322 0.0976628 -0.403573
upperback 1.95979 0.0769629 -0.269468
thorax -3.26444 0.0397121 -0.0611253
lowerneck -10.7161 -0.932408 -7.17769
upperneck 1.43726 -0.620952 6.57734
head 2.45151 -0.151871 3.45919
rclavicle 2.18663e-015 -5.1684e-015
rhumerus -27.9259 -0.703178 -81.8106
rradius 29.5042
rwrist 12.497
rhand -25.1466 -2.85707
rfingers 7.12502
rthumb 1.36994 -32.8324
lclavicle 2.18663e-015 -5.1684e-015
lhumerus -26.5503 12.5682 77.9424
lradius 29.6967
lwrist 0.388405
lhand -18.9644 25.4006
lfingers 7.12502
lthumb 7.33954 55.2533
rfemur -14.219 14.7909 17.1637
rtibia 34.3387
rfoot -22.1857 -14.7534
rtoes -5.29148
lfemur -10.8135 -1.18149 -19.0426
ltibia 27.6532
lfoot -19.4854 9.30863
ltoes -4.36323
321
root -0.986242 18.6003 -1.17151 6.2821 -5.22013 1.81132
lowerback 9.31123 0.136679 -0.397402
upperback 1.8947 0.130972 -0.243113
thorax -3.25336 0.0666013 -0.0436031
lowerneck -10.842 -0.98377 -7.08624
upperneck 1.52469 -0.692395 6.48832
head 2.50763 -0.188059 3.4089
rclavicle 1.33683e-014 5.76476e-015
rhumerus -27.984 -0.782896 -81.7149
rradius 29.414
rwrist 12.529
rhand -25.0553 -2.51888
rfingers 7.12502
rthumb 1.45816 -32.4936
lclavicle 1.33683e-014 5.76476e-015
lhumerus -26.8164 12.7046 77.7984
lradius 29.5366
lwrist 0.227036
lhand -18.8623 25.454
lfingers 7.12502
lthumb 7.43804 55.3032
rfemur -13.8938 15.0347 17.3325
rtibia 33.7899
rfoot -22.0469 -14.9064
rtoes -5.07144
lfemur -10.5321 -1.21354 -18.9208
ltibia 27.1328
lfoot -19.42 9.63973
ltoes -4.8794
322
root -0.988113 18.6124 -1.16187 6.35806 -5.33662 1.73198
lowerback 9.07019 0.170267 -0.396526
upperback 1.80617 0.176546 -0.251224
thorax -3.21147 0.0892648 -0.0573672
lowerneck -10.8407 -0.993063 -7.00695
upperneck 1.53839 -0.71279 6.4261
head 2.51144 -0.199619 3.37055
rclavicle 3.926e-015 -1.49089e-014
rhumerus -28.0529 -0.929197 -81.623
rradius 29.2835
rwrist 12.5812
rhand -24.8667 -2.25567
rfingers 7.12502
rthumb 1.64036 -32.2291
lclavicle 3.926e-015 -1.49089e-014
lhumerus -27.226 12.8621 77.6388
lradius 29.5387
lwrist 0.307519
lhand -19.0781 25.4444
lfingers 7.12502
lthumb 7.22974 55.3009
rfemur -13.6596 15.2174 17.3975
rtibia 33.2519
rfoot -21.8755 -14.9338
rtoes -5.08692
lfemur -10.332 -1.26011 -18.8592
ltibia 26.6524
lfoot -19.3071 10.0013
ltoes -5.72075
323
root -0.989529 18.6246 -1.15292 6.41764 -5.40809 1.58649
lowerback 8.89636 0.173925 -0.2935
upperback 1.69869 0.191997 -0.245798
thorax -3.22603 0.0961509 -0.111169
lowerneck -10.7979 -0.967216 -7.17804
upperneck 1.55041 -0.669844 6.65132
head 2.51035 -0.173084 3.48566
rclavicle 1.49089e-015 9.93923e-016
rhumerus -28.1304 -1.13265 -81.538
rradius 29.1453
rwrist 12.697
rhand -24.6851 -2.04449
rfingers 7.12502
rthumb 1.81571 -32.0165
lclavicle 1.49089e-015 9.93923e-016
lhumerus -27.5602 13.0402 77.4821
lradius 29.3909
lwrist 0.496936
lhand -19.4007 25.5882
lfingers 7.12502
lthumb 6.91839 55.4551
rfemur -13.407 15.3879 17.5396
rtibia 32.709
rfoot -21.6777 -14.9531
rtoes -5.17253
lfemur -10.1138 -1.33175 -18.7226
ltibia 26.1902
lfoot -19.1509 10.2794
ltoes -6.31438
324
root -0.991109 18.6381 -1.14567 6.46121 -5.36079 1.48797
lowerback 8.77402 0.152609 -0.210408
upperback 1.61409 0.171761 -0.248523
thorax -3.24542 0.0854069 -0.158196
lowerneck -10.8591 -0.990033 -7.27012
upperneck 1.58055 -0.691778 6.78051
head 2.53736 -0.179813 3.54963
rclavicle 7.45443e-015 8.34896e-015
rhumerus -28.193 -1.3771 -81.4335
rradius 29.0819
rwrist 12.8602
rhand -24.8496 -1.97561
rfingers 7.12502
rthumb 1.65683 -31.9489
lclavicle 7.45443e-015 8.34896e-015
lhumerus -27.8031 13.3644 77.3017
lradius 29.1869
lwrist 0.234285
lhand -19.3722 25.7925
lfingers 7.12502
lthumb 6.94585 55.6586
rfemur -13.1509 15.4796 17.6454
rtibia 32.1832
rfoot -21.4755 -15.0611
rtoes -5.18574
lfemur -9.90254 -1.55829 -18.6164
ltibia 25.7395
lfoot -19.0161 10.467
ltoes -6.28528
325
root -0.995344 18.6494 -1.14198 6.4747 -5.30286 1.42755
lowerback 8.68007 0.130746 -0.249026
upperback 1.54566 0.140594 -0.218102
thorax -3.26427 0.0705369 -0.101348
lowerneck -10.9114 -1.04434 -7.16463
upperneck 1.59527 -0.767632 6.61978
head 2.55393 -0.221205 3.46853
rclavicle 4.22417e-015 -4.77083e-015
rhumerus -28.2358 -1.513 -81.3109
rradius 29.0185
rwrist 13.0299
rhand -24.98 -2.43677
rfingers 7.12502
rthumb 1.5309 -32.411
lclavicle 4.22417e-015 -4.77083e-015
lhumerus -28.1772 13.8315 77.0938
lradius 29.136
lwrist -0.153928
lhand -19.1326 26.0851
lfingers 7.12502
lthumb 7.17712 55.9434
rfemur -12.8957 15.5857 17.736
rtibia 31.676
rfoot -21.2253 -15.206
rtoes -5.20869
lfemur -9.69092 -1.69626 -18.5297
ltibia 25.3228
lfoot -18.8872 10.5206
ltoes -6.12668
326
root -0.998941 18.6608 -1.14044 6.46836 -5.28007 1.42321
lowerback 8.60957 0.104416 -0.321881
upperback 1.4613 0.0991781 -0.21694
thorax -3.31255 0.0508992 -0.0544693
lowerneck -10.7935 -1.06929 -7.19983
upperneck 1.51853 -0.800593 6.60869
head 2.50857 -0.23978 3.46697
rclavicle -6.58474e-015 -1.31198e-014
rhumerus -28.3694 -1.59865 -81.2386
rradius 29.0394
rwrist 13.0918
rhand -24.869 -2.82284
rfingers 7.12502
rthumb 1.63804 -32.7963
lclavicle -6.58474e-015 -1.31198e-014
lhumerus -28.5891 14.2522 76.8922
lradius 29.0783
lwrist -0.263738
lhand -19.0202 26.1984
lfingers 7.12502
lthumb 7.28569 56.053
rfemur -12.6369 15.6921 17.7599
rtibia 31.2023
rfoot -21.0675 -15.301
rtoes -5.36973
lfemur -9.47952 -1.81882 -18.5191
ltibia 24.9531
lfoot -18.7148 10.6647
ltoes -6.24555
327
root -1.00057 18.6727 -1.13835 6.48782 -5.28073 1.41255
lowerback 8.50083 0.0935284 -0.33378
upperback 1.35609 0.0827106 -0.250679
thorax -3.36095 0.0428912 -0.0807578
lowerneck -10.5991 -1.0767 -7.38157
upperneck 1.41042 -0.805309 6.81188
head 2.44201 -0.239706 3.5704
rclavicle -9.81499e-015 -1.98785e-015
rhumerus -28.5442 -1.71793 -81.1914
rradius 29.0791
rwrist 13.0576
rhand -24.6533 -2.67955
rfingers 7.12502
rthumb 1.8464 -32.6513
lclavicle -9.81499e-015 -1.98785e-015
lhumerus -28.8802 14.5655 76.6582
lradius 28.7939
lwrist -0.478864
lhand -19.1405 25.7435
lfingers 7.12502
lthumb 7.16956 55.602
rfemur -12.419 15.7673 17.7653
rtibia 30.7738
rfoot -20.9759 -15.2525
rtoes -5.2226
lfemur -9.31687 -1.93903 -18.5184
ltibia 24.6399
lfoot -18.56 10.8778
ltoes -6.5399
328
root -1.00306 18.6826 -1.13678 6.52458 -5.19409 1.26981
lowerback 8.36192 0.0692186 -0.17267
upperback 1.31198 0.0645932 -0.276264
thorax -3.32903 0.0319881 -0.195599
lowerneck -10.634 -1.10394 -7.3765
upperneck 1.33714 -0.841808 6.90409
head 2.42821 -0.254083 3.59944
rclavicle 3.72721e-015 -6.4605e-015
rhumerus -28.553 -1.94959 -81.1639
rradius 29.031
rwrist 13.052
rhand -24.632 -2.44016
rfingers 7.12502
rthumb 1.86701 -32.4117
lclavicle 3.72721e-015 -6.4605e-015
lhumerus -29.0252 14.8189 76.412
lradius 28.4962
lwrist -0.713514
lhand -19.2598 25.3997
lfingers 7.12502
lthumb 7.05434 55.2621
rfemur -12.1928 15.7719 17.9432
rtibia 30.3653
rfoot -20.8998 -15.142
rtoes -4.93118
lfemur -9.19329 -2.02745 -18.3414
ltibia 24.3461
lfoot -18.4043 10.9137
ltoes -6.54223
